<?xml version="1.0" encoding="iso-8859-1"?>
<!-- Generator: Adobe Illustrator 18.1.1, SVG Export Plug-In . SVG Version: 6.00 Build 0)  -->
<svg version="1.1" id="Capa_1" xmlns="http://www.w3.org/2000/svg" xmlns:xlink="http://www.w3.org/1999/xlink" x="0px" y="0px"
	 viewBox="0 0 27.5 27.5" style="enable-background:new 0 0 27.5 27.5;" xml:space="preserve">
<g>
	<path style="fill:#010002;" d="M20.167,13.168c-1.207,2.764-3.845,5.074-6.403,5.074c-3.122,0-5.39-2.284-6.599-5.046
		C0.134,16.838,1.02,26.055,1.02,26.055c0,1.262,0.994,1.445,2.162,1.445h10.581h10.566c1.17,0,2.168-0.184,2.168-1.445
		C26.497,26.055,27.198,16.811,20.167,13.168z"/>
	<path style="fill:#010002;" d="M13.764,16.744c3.521,0,6.321-5.04,6.321-9.204S17.23,0,13.708,0S7.332,3.376,7.332,7.541
		C7.332,11.705,10.242,16.744,13.764,16.744z"/>
</g>
<g>
</g>
<g>
</g>
<g>
</g>
<g>
</g>
<g>
</g>
<g>
</g>
<g>
</g>
<g>
</g>
<g>
</g>
<g>
</g>
<g>
</g>
<g>
</g>
<g>
</g>
<g>
</g>
<g>
</g>
</svg>
